<mxfile host="app.diagrams.net" modified="2024-05-18T09:08:49.430Z" agent="Mozilla/5.0 (Windows NT 10.0; Win64; x64) AppleWebKit/537.36 (KHTML, like Gecko) Chrome/124.0.0.0 Safari/537.36" etag="rbDv_NilNzmaHXkAIIfL" version="24.4.4" type="device">
  <diagram name="페이지-1" id="Yyz5Fdja_pa8CQu3-Ewd">
    <mxGraphModel dx="2971" dy="1998" grid="1" gridSize="10" guides="1" tooltips="1" connect="1" arrows="1" fold="1" page="1" pageScale="1" pageWidth="827" pageHeight="1169" math="0" shadow="0">
      <root>
        <mxCell id="0" />
        <mxCell id="1" parent="0" />
        <mxCell id="IeHbnnVpvt4WbjleOfpM-4" value=".pcap&lt;div&gt;.cap&lt;/div&gt;" style="shape=note;whiteSpace=wrap;html=1;backgroundOutline=1;darkOpacity=0.05;" vertex="1" parent="1">
          <mxGeometry x="-300" y="-84" width="80" height="100" as="geometry" />
        </mxCell>
        <mxCell id="IeHbnnVpvt4WbjleOfpM-5" value="" style="endArrow=classic;html=1;rounded=0;entryX=0;entryY=0.5;entryDx=0;entryDy=0;exitX=1.005;exitY=0.537;exitDx=0;exitDy=0;exitPerimeter=0;" edge="1" parent="1" source="IeHbnnVpvt4WbjleOfpM-4" target="IeHbnnVpvt4WbjleOfpM-47">
          <mxGeometry width="50" height="50" relative="1" as="geometry">
            <mxPoint x="-260.0000000000002" y="40.5299999999998" as="sourcePoint" />
            <mxPoint x="-171.51999999999998" y="39.329999999999984" as="targetPoint" />
          </mxGeometry>
        </mxCell>
        <mxCell id="IeHbnnVpvt4WbjleOfpM-12" value="config&lt;div&gt;file&lt;/div&gt;" style="shape=note;whiteSpace=wrap;html=1;backgroundOutline=1;darkOpacity=0.05;" vertex="1" parent="1">
          <mxGeometry x="510" y="-300" width="70" height="80" as="geometry" />
        </mxCell>
        <mxCell id="IeHbnnVpvt4WbjleOfpM-13" value="rule&lt;div&gt;config&lt;/div&gt;&lt;div&gt;file&lt;/div&gt;" style="shape=note;whiteSpace=wrap;html=1;backgroundOutline=1;darkOpacity=0.05;" vertex="1" parent="1">
          <mxGeometry x="620" y="-300" width="70" height="80" as="geometry" />
        </mxCell>
        <mxCell id="IeHbnnVpvt4WbjleOfpM-15" value="icmp/smurf&lt;div&gt;config&lt;/div&gt;&lt;div&gt;file&lt;/div&gt;" style="shape=note;whiteSpace=wrap;html=1;backgroundOutline=1;darkOpacity=0.05;" vertex="1" parent="1">
          <mxGeometry x="730" y="-300" width="70" height="80" as="geometry" />
        </mxCell>
        <mxCell id="IeHbnnVpvt4WbjleOfpM-55" value="" style="endArrow=classic;html=1;rounded=0;" edge="1" parent="1">
          <mxGeometry width="50" height="50" relative="1" as="geometry">
            <mxPoint x="545" y="-220" as="sourcePoint" />
            <mxPoint x="545" y="-170" as="targetPoint" />
          </mxGeometry>
        </mxCell>
        <mxCell id="IeHbnnVpvt4WbjleOfpM-56" value="" style="endArrow=classic;html=1;rounded=0;" edge="1" parent="1">
          <mxGeometry width="50" height="50" relative="1" as="geometry">
            <mxPoint x="655" y="-220" as="sourcePoint" />
            <mxPoint x="655" y="-170" as="targetPoint" />
          </mxGeometry>
        </mxCell>
        <mxCell id="IeHbnnVpvt4WbjleOfpM-57" value="" style="endArrow=classic;html=1;rounded=0;" edge="1" parent="1">
          <mxGeometry width="50" height="50" relative="1" as="geometry">
            <mxPoint x="765" y="-220" as="sourcePoint" />
            <mxPoint x="765" y="-170" as="targetPoint" />
          </mxGeometry>
        </mxCell>
        <mxCell id="IeHbnnVpvt4WbjleOfpM-58" value="Main" style="swimlane;whiteSpace=wrap;html=1;" vertex="1" parent="1">
          <mxGeometry x="-170" y="-170" width="1650" height="320" as="geometry" />
        </mxCell>
        <mxCell id="IeHbnnVpvt4WbjleOfpM-47" value="Read Packet Thread" style="rounded=0;whiteSpace=wrap;html=1;" vertex="1" parent="IeHbnnVpvt4WbjleOfpM-58">
          <mxGeometry x="40" y="110" width="160" height="60" as="geometry" />
        </mxCell>
        <mxCell id="IeHbnnVpvt4WbjleOfpM-61" value="Log Packet Thread" style="swimlane;whiteSpace=wrap;html=1;" vertex="1" parent="IeHbnnVpvt4WbjleOfpM-58">
          <mxGeometry x="1250" y="80" width="180" height="220" as="geometry" />
        </mxCell>
        <mxCell id="IeHbnnVpvt4WbjleOfpM-62" value="Log&lt;div&gt;Queue&lt;/div&gt;" style="ellipse;whiteSpace=wrap;html=1;aspect=fixed;" vertex="1" parent="IeHbnnVpvt4WbjleOfpM-61">
          <mxGeometry x="40" y="30" width="80" height="80" as="geometry" />
        </mxCell>
        <mxCell id="IeHbnnVpvt4WbjleOfpM-92" style="edgeStyle=orthogonalEdgeStyle;rounded=0;orthogonalLoop=1;jettySize=auto;html=1;" edge="1" parent="IeHbnnVpvt4WbjleOfpM-61">
          <mxGeometry relative="1" as="geometry">
            <mxPoint x="82" y="130" as="targetPoint" />
            <mxPoint x="151.87037037037135" y="170.03703703703695" as="sourcePoint" />
            <Array as="points">
              <mxPoint x="172" y="170" />
              <mxPoint x="172" y="130" />
            </Array>
          </mxGeometry>
        </mxCell>
        <mxCell id="IeHbnnVpvt4WbjleOfpM-86" value="Log Queue 70% full ||&lt;div&gt;Elapsed Time &amp;gt;= 10&lt;/div&gt;" style="rhombus;whiteSpace=wrap;html=1;" vertex="1" parent="IeHbnnVpvt4WbjleOfpM-61">
          <mxGeometry x="12" y="150" width="140" height="40" as="geometry" />
        </mxCell>
        <mxCell id="IeHbnnVpvt4WbjleOfpM-89" value="" style="endArrow=none;html=1;rounded=0;exitX=0.5;exitY=0;exitDx=0;exitDy=0;" edge="1" parent="IeHbnnVpvt4WbjleOfpM-61">
          <mxGeometry width="50" height="50" relative="1" as="geometry">
            <mxPoint x="82" y="150" as="sourcePoint" />
            <mxPoint x="82" y="110" as="targetPoint" />
          </mxGeometry>
        </mxCell>
        <mxCell id="IeHbnnVpvt4WbjleOfpM-91" value="Yes&lt;div&gt;[Dequeue]&lt;/div&gt;" style="text;html=1;align=center;verticalAlign=middle;whiteSpace=wrap;rounded=0;" vertex="1" parent="IeHbnnVpvt4WbjleOfpM-61">
          <mxGeometry x="80" y="200" width="60" height="30" as="geometry" />
        </mxCell>
        <mxCell id="IeHbnnVpvt4WbjleOfpM-94" value="No" style="text;html=1;align=center;verticalAlign=middle;whiteSpace=wrap;rounded=0;" vertex="1" parent="IeHbnnVpvt4WbjleOfpM-61">
          <mxGeometry x="112" y="100" width="60" height="30" as="geometry" />
        </mxCell>
        <mxCell id="IeHbnnVpvt4WbjleOfpM-111" value="" style="endArrow=classic;html=1;rounded=0;entryX=0;entryY=0.5;entryDx=0;entryDy=0;" edge="1" parent="IeHbnnVpvt4WbjleOfpM-61" target="IeHbnnVpvt4WbjleOfpM-62">
          <mxGeometry width="50" height="50" relative="1" as="geometry">
            <mxPoint y="70" as="sourcePoint" />
            <mxPoint x="50" y="20" as="targetPoint" />
          </mxGeometry>
        </mxCell>
        <mxCell id="IeHbnnVpvt4WbjleOfpM-60" value="Print Analysis Thread" style="rounded=0;whiteSpace=wrap;html=1;" vertex="1" parent="IeHbnnVpvt4WbjleOfpM-58">
          <mxGeometry x="1480" y="120" width="150" height="60" as="geometry" />
        </mxCell>
        <mxCell id="IeHbnnVpvt4WbjleOfpM-50" value="Detect Packet Thread" style="rounded=0;whiteSpace=wrap;html=1;" vertex="1" parent="IeHbnnVpvt4WbjleOfpM-58">
          <mxGeometry x="535" y="110" width="150" height="60" as="geometry" />
        </mxCell>
        <mxCell id="IeHbnnVpvt4WbjleOfpM-66" value="Detect Packet Thread" style="rounded=0;whiteSpace=wrap;html=1;" vertex="1" parent="IeHbnnVpvt4WbjleOfpM-58">
          <mxGeometry x="545" y="120" width="150" height="60" as="geometry" />
        </mxCell>
        <mxCell id="IeHbnnVpvt4WbjleOfpM-67" value="Detect Packet Thread" style="rounded=0;whiteSpace=wrap;html=1;" vertex="1" parent="IeHbnnVpvt4WbjleOfpM-58">
          <mxGeometry x="555" y="130" width="150" height="60" as="geometry" />
        </mxCell>
        <mxCell id="IeHbnnVpvt4WbjleOfpM-59" value="Danger&lt;div&gt;Packet&lt;/div&gt;&lt;div&gt;Queue&lt;/div&gt;" style="ellipse;whiteSpace=wrap;html=1;aspect=fixed;" vertex="1" parent="IeHbnnVpvt4WbjleOfpM-58">
          <mxGeometry x="1065" y="110.5" width="80" height="80" as="geometry" />
        </mxCell>
        <mxCell id="IeHbnnVpvt4WbjleOfpM-42" value="" style="ellipse;whiteSpace=wrap;html=1;aspect=fixed;" vertex="1" parent="IeHbnnVpvt4WbjleOfpM-58">
          <mxGeometry x="365" y="90" width="80" height="80" as="geometry" />
        </mxCell>
        <mxCell id="IeHbnnVpvt4WbjleOfpM-43" value="" style="ellipse;whiteSpace=wrap;html=1;aspect=fixed;" vertex="1" parent="IeHbnnVpvt4WbjleOfpM-58">
          <mxGeometry x="375" y="100" width="80" height="80" as="geometry" />
        </mxCell>
        <mxCell id="IeHbnnVpvt4WbjleOfpM-44" value="Packet&lt;div&gt;Queue&lt;/div&gt;" style="ellipse;whiteSpace=wrap;html=1;aspect=fixed;" vertex="1" parent="IeHbnnVpvt4WbjleOfpM-58">
          <mxGeometry x="385" y="110" width="80" height="80" as="geometry" />
        </mxCell>
        <mxCell id="IeHbnnVpvt4WbjleOfpM-70" value="Packet&lt;div&gt;Node&lt;/div&gt;" style="text;html=1;align=center;verticalAlign=middle;whiteSpace=wrap;rounded=0;" vertex="1" parent="IeHbnnVpvt4WbjleOfpM-58">
          <mxGeometry x="270" y="145" width="60" height="30" as="geometry" />
        </mxCell>
        <mxCell id="IeHbnnVpvt4WbjleOfpM-71" value="&lt;div&gt;No&lt;/div&gt;[Enqueue]" style="text;html=1;align=center;verticalAlign=middle;whiteSpace=wrap;rounded=0;" vertex="1" parent="IeHbnnVpvt4WbjleOfpM-58">
          <mxGeometry x="270" y="100" width="60" height="30" as="geometry" />
        </mxCell>
        <mxCell id="IeHbnnVpvt4WbjleOfpM-72" value="" style="endArrow=classic;html=1;rounded=0;entryX=0;entryY=0.5;entryDx=0;entryDy=0;" edge="1" parent="IeHbnnVpvt4WbjleOfpM-58" target="IeHbnnVpvt4WbjleOfpM-50">
          <mxGeometry width="50" height="50" relative="1" as="geometry">
            <mxPoint x="465" y="140" as="sourcePoint" />
            <mxPoint x="515" y="90" as="targetPoint" />
          </mxGeometry>
        </mxCell>
        <mxCell id="IeHbnnVpvt4WbjleOfpM-73" value="Dequeue" style="text;html=1;align=center;verticalAlign=middle;whiteSpace=wrap;rounded=0;" vertex="1" parent="IeHbnnVpvt4WbjleOfpM-58">
          <mxGeometry x="465" y="110" width="60" height="30" as="geometry" />
        </mxCell>
        <mxCell id="IeHbnnVpvt4WbjleOfpM-74" value="packet == rule ||&lt;div&gt;packet == icmp flood ||&lt;/div&gt;&lt;div&gt;packet == smurf&lt;/div&gt;" style="rhombus;whiteSpace=wrap;html=1;" vertex="1" parent="IeHbnnVpvt4WbjleOfpM-58">
          <mxGeometry x="825" y="110" width="135" height="80" as="geometry" />
        </mxCell>
        <mxCell id="IeHbnnVpvt4WbjleOfpM-75" value="" style="endArrow=classic;html=1;rounded=0;" edge="1" parent="IeHbnnVpvt4WbjleOfpM-58">
          <mxGeometry width="50" height="50" relative="1" as="geometry">
            <mxPoint x="895" y="190" as="sourcePoint" />
            <mxPoint x="895" y="230" as="targetPoint" />
          </mxGeometry>
        </mxCell>
        <mxCell id="IeHbnnVpvt4WbjleOfpM-76" value="No" style="text;html=1;align=center;verticalAlign=middle;whiteSpace=wrap;rounded=0;" vertex="1" parent="IeHbnnVpvt4WbjleOfpM-58">
          <mxGeometry x="895" y="190" width="60" height="30" as="geometry" />
        </mxCell>
        <mxCell id="IeHbnnVpvt4WbjleOfpM-77" value="Drop&lt;div&gt;(Free Memory)&lt;/div&gt;" style="text;html=1;align=center;verticalAlign=middle;whiteSpace=wrap;rounded=0;" vertex="1" parent="IeHbnnVpvt4WbjleOfpM-58">
          <mxGeometry x="850" y="231" width="95" height="30" as="geometry" />
        </mxCell>
        <mxCell id="IeHbnnVpvt4WbjleOfpM-78" value="" style="endArrow=classic;html=1;rounded=0;" edge="1" parent="IeHbnnVpvt4WbjleOfpM-58">
          <mxGeometry width="50" height="50" relative="1" as="geometry">
            <mxPoint x="960" y="150" as="sourcePoint" />
            <mxPoint x="1065" y="150" as="targetPoint" />
          </mxGeometry>
        </mxCell>
        <mxCell id="IeHbnnVpvt4WbjleOfpM-79" value="Yes&lt;div&gt;[Enqueue]&lt;/div&gt;" style="text;html=1;align=center;verticalAlign=middle;whiteSpace=wrap;rounded=0;" vertex="1" parent="IeHbnnVpvt4WbjleOfpM-58">
          <mxGeometry x="985" y="115" width="60" height="30" as="geometry" />
        </mxCell>
        <mxCell id="IeHbnnVpvt4WbjleOfpM-80" value="Danger&lt;div&gt;Packet&lt;/div&gt;&lt;div&gt;Node&lt;/div&gt;" style="text;html=1;align=center;verticalAlign=middle;whiteSpace=wrap;rounded=0;" vertex="1" parent="IeHbnnVpvt4WbjleOfpM-58">
          <mxGeometry x="985" y="160" width="60" height="30" as="geometry" />
        </mxCell>
        <mxCell id="IeHbnnVpvt4WbjleOfpM-81" value="" style="endArrow=classic;html=1;rounded=0;" edge="1" parent="IeHbnnVpvt4WbjleOfpM-58" target="IeHbnnVpvt4WbjleOfpM-74">
          <mxGeometry width="50" height="50" relative="1" as="geometry">
            <mxPoint x="705" y="150" as="sourcePoint" />
            <mxPoint x="755" y="90" as="targetPoint" />
          </mxGeometry>
        </mxCell>
        <mxCell id="IeHbnnVpvt4WbjleOfpM-82" value="Danger&lt;div&gt;Packet&lt;/div&gt;&lt;div&gt;Node&lt;/div&gt;" style="text;html=1;align=center;verticalAlign=middle;whiteSpace=wrap;rounded=0;" vertex="1" parent="IeHbnnVpvt4WbjleOfpM-58">
          <mxGeometry x="735" y="161" width="60" height="30" as="geometry" />
        </mxCell>
        <mxCell id="IeHbnnVpvt4WbjleOfpM-83" value="" style="endArrow=classic;html=1;rounded=0;" edge="1" parent="IeHbnnVpvt4WbjleOfpM-58">
          <mxGeometry width="50" height="50" relative="1" as="geometry">
            <mxPoint x="1145" y="150" as="sourcePoint" />
            <mxPoint x="1245" y="150" as="targetPoint" />
          </mxGeometry>
        </mxCell>
        <mxCell id="IeHbnnVpvt4WbjleOfpM-84" value="Dequeue" style="text;html=1;align=center;verticalAlign=middle;whiteSpace=wrap;rounded=0;" vertex="1" parent="IeHbnnVpvt4WbjleOfpM-58">
          <mxGeometry x="1160" y="120" width="60" height="30" as="geometry" />
        </mxCell>
        <mxCell id="IeHbnnVpvt4WbjleOfpM-96" value="" style="endArrow=none;html=1;rounded=0;" edge="1" parent="IeHbnnVpvt4WbjleOfpM-58">
          <mxGeometry width="50" height="50" relative="1" as="geometry">
            <mxPoint x="120" y="190" as="sourcePoint" />
            <mxPoint x="120" y="170" as="targetPoint" />
          </mxGeometry>
        </mxCell>
        <mxCell id="IeHbnnVpvt4WbjleOfpM-97" value="Packet Queue&lt;div&gt;Full ?&lt;/div&gt;" style="rhombus;whiteSpace=wrap;html=1;" vertex="1" parent="IeHbnnVpvt4WbjleOfpM-58">
          <mxGeometry x="50" y="190" width="140" height="59" as="geometry" />
        </mxCell>
        <mxCell id="IeHbnnVpvt4WbjleOfpM-101" value="" style="endArrow=none;html=1;rounded=0;" edge="1" parent="IeHbnnVpvt4WbjleOfpM-58">
          <mxGeometry width="50" height="50" relative="1" as="geometry">
            <mxPoint x="190" y="220" as="sourcePoint" />
            <mxPoint x="250" y="220" as="targetPoint" />
          </mxGeometry>
        </mxCell>
        <mxCell id="IeHbnnVpvt4WbjleOfpM-103" value="" style="endArrow=none;html=1;rounded=0;" edge="1" parent="IeHbnnVpvt4WbjleOfpM-58">
          <mxGeometry width="50" height="50" relative="1" as="geometry">
            <mxPoint x="250" y="220" as="sourcePoint" />
            <mxPoint x="250" y="140" as="targetPoint" />
          </mxGeometry>
        </mxCell>
        <mxCell id="IeHbnnVpvt4WbjleOfpM-104" value="" style="endArrow=classic;html=1;rounded=0;entryX=0.063;entryY=0.625;entryDx=0;entryDy=0;entryPerimeter=0;" edge="1" parent="IeHbnnVpvt4WbjleOfpM-58" target="IeHbnnVpvt4WbjleOfpM-42">
          <mxGeometry width="50" height="50" relative="1" as="geometry">
            <mxPoint x="250" y="140" as="sourcePoint" />
            <mxPoint x="300" y="90" as="targetPoint" />
          </mxGeometry>
        </mxCell>
        <mxCell id="IeHbnnVpvt4WbjleOfpM-105" value="" style="endArrow=none;html=1;rounded=0;" edge="1" parent="IeHbnnVpvt4WbjleOfpM-58">
          <mxGeometry width="50" height="50" relative="1" as="geometry">
            <mxPoint x="120" y="280" as="sourcePoint" />
            <mxPoint x="120" y="250" as="targetPoint" />
          </mxGeometry>
        </mxCell>
        <mxCell id="IeHbnnVpvt4WbjleOfpM-106" value="" style="endArrow=none;html=1;rounded=0;" edge="1" parent="IeHbnnVpvt4WbjleOfpM-58">
          <mxGeometry width="50" height="50" relative="1" as="geometry">
            <mxPoint x="120" y="280" as="sourcePoint" />
            <mxPoint x="1110" y="280" as="targetPoint" />
          </mxGeometry>
        </mxCell>
        <mxCell id="IeHbnnVpvt4WbjleOfpM-107" value="" style="endArrow=classic;html=1;rounded=0;" edge="1" parent="IeHbnnVpvt4WbjleOfpM-58">
          <mxGeometry width="50" height="50" relative="1" as="geometry">
            <mxPoint x="1110" y="280" as="sourcePoint" />
            <mxPoint x="1110" y="200" as="targetPoint" />
          </mxGeometry>
        </mxCell>
        <mxCell id="IeHbnnVpvt4WbjleOfpM-109" value="Yes&lt;div&gt;[Enqueue]&lt;/div&gt;" style="text;html=1;align=center;verticalAlign=middle;whiteSpace=wrap;rounded=0;" vertex="1" parent="IeHbnnVpvt4WbjleOfpM-58">
          <mxGeometry x="270" y="249" width="60" height="30" as="geometry" />
        </mxCell>
        <mxCell id="IeHbnnVpvt4WbjleOfpM-110" value="Danger Packet Node" style="text;html=1;align=center;verticalAlign=middle;whiteSpace=wrap;rounded=0;" vertex="1" parent="IeHbnnVpvt4WbjleOfpM-58">
          <mxGeometry x="200" y="279" width="200" height="30" as="geometry" />
        </mxCell>
        <mxCell id="IeHbnnVpvt4WbjleOfpM-112" value="" style="endArrow=none;html=1;rounded=0;" edge="1" parent="IeHbnnVpvt4WbjleOfpM-58">
          <mxGeometry width="50" height="50" relative="1" as="geometry">
            <mxPoint x="410" y="90" as="sourcePoint" />
            <mxPoint x="410" y="50" as="targetPoint" />
          </mxGeometry>
        </mxCell>
        <mxCell id="IeHbnnVpvt4WbjleOfpM-113" value="" style="endArrow=none;html=1;rounded=0;" edge="1" parent="IeHbnnVpvt4WbjleOfpM-58">
          <mxGeometry width="50" height="50" relative="1" as="geometry">
            <mxPoint x="410" y="50" as="sourcePoint" />
            <mxPoint x="1550" y="50" as="targetPoint" />
          </mxGeometry>
        </mxCell>
        <mxCell id="IeHbnnVpvt4WbjleOfpM-115" value="" style="endArrow=classic;html=1;rounded=0;" edge="1" parent="IeHbnnVpvt4WbjleOfpM-58">
          <mxGeometry width="50" height="50" relative="1" as="geometry">
            <mxPoint x="1550" y="50" as="sourcePoint" />
            <mxPoint x="1550" y="110" as="targetPoint" />
          </mxGeometry>
        </mxCell>
        <mxCell id="IeHbnnVpvt4WbjleOfpM-116" value="" style="endArrow=none;html=1;rounded=0;" edge="1" parent="IeHbnnVpvt4WbjleOfpM-58">
          <mxGeometry width="50" height="50" relative="1" as="geometry">
            <mxPoint x="1110" y="110" as="sourcePoint" />
            <mxPoint x="1110" y="50" as="targetPoint" />
          </mxGeometry>
        </mxCell>
        <mxCell id="IeHbnnVpvt4WbjleOfpM-90" value="sqlite3" style="shape=cylinder3;whiteSpace=wrap;html=1;boundedLbl=1;backgroundOutline=1;size=15;" vertex="1" parent="1">
          <mxGeometry x="1132" y="200" width="60" height="80" as="geometry" />
        </mxCell>
        <mxCell id="IeHbnnVpvt4WbjleOfpM-87" style="edgeStyle=orthogonalEdgeStyle;rounded=0;orthogonalLoop=1;jettySize=auto;html=1;exitX=0.5;exitY=1;exitDx=0;exitDy=0;entryX=0.5;entryY=0;entryDx=0;entryDy=0;entryPerimeter=0;" edge="1" parent="1" source="IeHbnnVpvt4WbjleOfpM-86" target="IeHbnnVpvt4WbjleOfpM-90">
          <mxGeometry relative="1" as="geometry">
            <mxPoint x="1079.8461538461538" y="240" as="targetPoint" />
          </mxGeometry>
        </mxCell>
      </root>
    </mxGraphModel>
  </diagram>
</mxfile>
